{"asset":{"version":"2.0","generator":"THREE.GLTFExporter r175"},"scenes":[{"name":"AuxScene","nodes":[5]}],"scene":0,"nodes":[{"mesh":0},{"matrix":[0.10608776516984193,0,-0.10608776516984196,0,0,-0.15003075630504253,0,0,0.10608776516984196,0,0.10608776516984193,0,0,0,0,1],"children":[0]},{"children":[1]},{"matrix":[1,0,0,0,0,1,0,0,0,0,1,0,-32.00190470719008,50.00327303199678,31.577553671804008,1],"children":[2]},{"children":[3]},{"children":[4]}],"bufferViews":[{"buffer":0,"byteOffset":0,"byteLength":150480,"target":34962,"byteStride":12},{"buffer":0,"byteOffset":150480,"byteLength":100320,"target":34962,"byteStride":8},{"buffer":0,"byteOffset":250800,"byteLength":150480,"target":34962,"byteStride":12}],"buffers":[{"byteLength":401280,"uri":"data:application/octet-stream;base64,"}],"accessors":[{"bufferView":0,"componentType":5126,"count":12540,"max":[599.6099853515625,666.8198852539062,43.099998474121094],"min":[-0.30000317096710205,-0.24625377357006073,-0.6000000238418579],"type":"VEC3"},{"bufferView":1,"componentType":5126,"count":12540,"max":[666.1342163085938,666.5198364257812],"min":[0,-42.099998474121094],"type":"VEC2"},{"bufferView":2,"componentType":5126,"count":12540,"max":[1,0.9999140501022339,1],"min":[-0.999997079372406,-0.9999998807907104,-1],"type":"VEC3"}],"materials":[{"pbrMetallicRoughness":{"baseColorFactor":[0.6375968739867731,0.6653872982754769,0.7083757798856457,1],"metallicFactor":0,"roughnessFactor":0.3},"doubleSided":true,"extensions":{"KHR_materials_transmission":{"transmissionFactor":1},"KHR_materials_volume":{"thicknessFactor":0,"attenuationColor":[1,1,1]}}}],"meshes":[{"primitives":[{"mode":4,"attributes":{"POSITION":0,"TEXCOORD_0":1,"NORMAL":2},"material":0}]}],"extensionsUsed":["KHR_materials_transmission","KHR_materials_volume"]}